<?xml version="1.0" standalone="no"?>
<!DOCTYPE svg PUBLIC "-//W3C//DTD SVG 20010904//EN"
 "http://www.w3.org/TR/2001/REC-SVG-20010904/DTD/svg10.dtd">
<svg version="1.0" xmlns="http://www.w3.org/2000/svg"
 width="260.000000pt" height="260.000000pt" viewBox="0 0 260.000000 260.000000"
 preserveAspectRatio="xMidYMid meet">

<g transform="translate(0.000000,260.000000) scale(0.100000,-0.100000)"
fill="steelblue" stroke="">
<path d="M1175 2580 c-425 -45 -787 -275 -1002 -635 -61 -102 -105 -209 -141
-345 -34 -129 -43 -390 -17 -525 48 -257 156 -471 333 -657 188 -197 414 -324
682 -383 113 -25 353 -30 478 -11 403 62 774 330 956 693 49 98 102 259 122
373 24 139 15 369 -20 508 -125 499 -532 878 -1036 966 -113 20 -257 26 -355
16z m359 -820 c35 -13 33 -41 -5 -110 -17 -30 -111 -224 -209 -430 -196 -414
-190 -405 -269 -381 -30 9 -41 17 -41 32 0 10 33 86 74 167 40 81 96 197 124
257 28 61 82 177 121 258 39 82 71 152 71 157 0 4 9 19 21 34 22 28 65 34 113
16z m-580 -226 c3 -9 6 -35 6 -59 0 -54 1 -53 -174 -130 -74 -33 -136 -62
-136 -65 0 -3 62 -32 136 -65 75 -33 145 -66 155 -73 23 -16 26 -88 5 -117
-13 -18 -22 -15 -212 69 -315 140 -294 127 -294 186 0 37 5 53 18 61 36 22
458 208 473 208 9 1 20 -6 23 -15z m937 -80 c292 -130 271 -115 267 -177 l-3
-51 -194 -88 c-293 -132 -301 -135 -311 -118 -6 8 -10 36 -10 63 0 57 1 58
184 137 69 30 126 57 126 60 0 3 -57 30 -126 60 -181 78 -184 81 -184 134 0
63 8 79 37 71 13 -3 109 -44 214 -91z"/>
</g>
</svg>
