<svg width="14" height="14" viewBox="0 0 14 14" fill="none" xmlns="http://www.w3.org/2000/svg">
<path fill-rule="evenodd" clip-rule="evenodd" d="M0 6.99997C0 3.13409 3.13411 0 7 0C10.8659 0 14 3.13409 14 6.99997C14 10.8658 10.8659 13.9999 7 13.9999C3.13411 13.9999 0 10.8658 0 6.99997ZM7.7002 3.50032C7.7002 3.1138 7.38652 2.80012 7 2.80012C6.61348 2.80012 6.2998 3.1138 6.2998 3.50032V6.27424C6.2998 6.43698 6.2998 6.60365 6.31358 6.74803C6.32867 6.9134 6.36477 7.09779 6.46582 7.28613C6.56623 7.47381 6.70009 7.60636 6.82938 7.71136C6.9416 7.80257 7.08006 7.89444 7.2159 7.985L8.71144 8.98246C9.033 9.19704 9.46807 9.10977 9.68265 8.78823C9.89658 8.46667 9.80996 8.03226 9.48842 7.81768L8.0119 6.83334C7.84849 6.7244 7.76582 6.66862 7.71068 6.62334L7.7074 6.62138V6.61744C7.70084 6.54656 7.70018 6.44682 7.70018 6.25061L7.7002 3.50032Z" fill="black"/>
</svg>
