<svg width="75" height="76" viewBox="0 0 75 76" fill="none" xmlns="http://www.w3.org/2000/svg">
<g filter="url(#filter0_d_2779_28742)">
<path d="M22.7973 18.7974C26.8286 14.7659 32.2973 12.5 38 12.5C43.7021 12.5 49.1712 14.7643 53.2026 18.7973C53.2026 18.7973 53.2027 18.7974 53.2027 18.7974M22.7973 18.7974L52.8491 19.1509M22.7973 18.7974C18.7661 22.8288 16.5 28.2977 16.5 34C16.5 39.7022 18.7659 45.1714 22.7974 49.2027C26.8288 53.2339 32.2977 55.5 38 55.5C43.7022 55.5 49.1714 53.2341 53.2027 49.2026C57.2339 45.1712 59.5 39.7023 59.5 34C59.5 28.2979 57.2359 22.8288 53.2027 18.7974M22.7973 18.7974L53.2027 18.7974M53.2027 18.7974L52.8491 19.1509M52.8491 19.1509C56.7884 23.0884 59 28.4304 59 34C59 39.5696 56.7866 44.9114 52.8491 48.8491C48.9116 52.7868 43.5696 55 38 55C32.4304 55 27.0886 52.7866 23.1509 48.8491C19.2132 44.9116 17 39.5696 17 34C17 28.4304 19.2134 23.0886 23.1509 19.1509C27.0884 15.2132 32.43 13 38 13C43.5696 13 48.9116 15.2118 52.8491 19.1509ZM37.6465 34.575L29.9331 42.2884L29.7116 42.0669L37.425 34.3536L37.7786 34L37.425 33.6464L29.7116 25.9331L29.9331 25.7116L37.6465 33.425L38 33.7785L38.3536 33.425L46.067 25.7116L46.2885 25.9331L38.5751 33.6464L38.2215 34L38.5751 34.3536L46.2885 42.0669L46.067 42.2884L38.3536 34.575L38 34.2215L37.6465 34.575Z" fill="#106ED3" stroke="white"/>
</g>
<defs>
<filter id="filter0_d_2779_28742" x="0" y="0" width="76" height="76" filterUnits="userSpaceOnUse" color-interpolation-filters="sRGB">
<feFlood flood-opacity="0" result="BackgroundImageFix"/>
<feColorMatrix in="SourceAlpha" type="matrix" values="0 0 0 0 0 0 0 0 0 0 0 0 0 0 0 0 0 0 127 0" result="hardAlpha"/>
<feOffset dy="4"/>
<feGaussianBlur stdDeviation="8"/>
<feComposite in2="hardAlpha" operator="out"/>
<feColorMatrix type="matrix" values="0 0 0 0 0.078241 0 0 0 0 0.446945 0 0 0 0 1 0 0 0 0.45 0"/>
<feBlend mode="normal" in2="BackgroundImageFix" result="effect1_dropShadow_2779_28742"/>
<feBlend mode="normal" in="SourceGraphic" in2="effect1_dropShadow_2779_28742" result="shape"/>
</filter>
</defs>
</svg>
